<svg xmlns="http://www.w3.org/2000/svg" version="1.1" xmlns:xlink="http://www.w3.org/1999/xlink" xmlns:svgjs="http://svgjs.dev/svgjs" width="390" height="408"><svg width="390" height="408" viewBox="0 0 390 408" fill="none" xmlns="http://www.w3.org/2000/svg">
<path d="M1.34482 153.027H54.0684V43.9352H1.34482V0.533356H390V43.9352H115.337V90.8143C115.337 130.613 134.363 168.695 168.061 196.47H1.38513V153.068L1.34482 153.027Z" fill="#5B0069"></path>
<path d="M0 364.433H273.741V320.184C273.741 278.868 253.091 239.521 216.936 211.865H387.31V255.277H334.764V364.391H387.31V407.802H0V364.391V364.433Z" fill="#5B0069"></path>
<path d="M114.614 358.818C41.7405 358.818 1.34482 320.637 1.34482 273.523V219.554C1.34482 219.554 35.0682 307.591 112.644 309.461C153.04 310.458 175.589 296.914 175.589 270.989C175.589 270.947 175.589 270.906 175.589 270.864C175.589 264.092 168.756 258.732 160.717 258.732H141.785V281.292H95.4004L66.2995 216.064H155.009C192.712 216.064 224.224 241.324 224.586 273.066C224.586 273.315 224.586 273.523 224.586 273.772C224.586 320.304 188.17 358.777 114.614 358.777V358.818Z" fill="#5B0069"></path>
<path d="M274.724 52.3167C347.158 52.3167 387.31 90.8723 387.31 138.448V192.946C387.31 192.946 353.79 104.046 276.682 102.158C236.529 101.151 214.116 114.828 214.116 141.007C214.116 141.049 214.116 141.091 214.116 141.133C214.116 147.972 220.908 153.384 228.898 153.384H247.716V130.603H293.821L322.747 196.47H234.572C197.096 196.47 165.773 170.962 165.414 138.91C165.414 138.658 165.414 138.448 165.414 138.196C165.414 91.2079 201.611 52.3586 274.724 52.3586V52.3167Z" fill="#5B0069"></path>
</svg><style>@media (prefers-color-scheme: light) { :root { filter: none; } }
@media (prefers-color-scheme: dark) { :root { filter: none; } }
</style></svg>